Coordinates
version=1
nRows=19
nColumns=24
inDegrees=yes

Units are S.I. units (second, meters, Newtons, ...)
Angles are in degrees.

endheader
time	pelvis_tilt	pelvis_list	pelvis_rotation	pelvis_tx	pelvis_ty	pelvis_tz	hip_flexion_r	hip_adduction_r	hip_rotation_r	knee_angle_r	ankle_angle_r	subtalar_angle_r	mtp_angle_r	hip_flexion_l	hip_adduction_l	hip_rotation_l	knee_angle_l	ankle_angle_l	subtalar_angle_l	mtp_angle_l	lumbar_extension	lumbar_bending	lumbar_rotation
      4.05500000	     -4.64363531	     -7.46759960	      1.29739072	     -0.83332224	     -0.02103984	     -0.36695639	     21.19221700	     12.27151316	      0.08113960	    -19.77747175	     -1.69407981	    -12.84805029	      3.73353214	      4.25956272	    -14.22357362	    -12.47649967	    -54.65860219	    -21.48531467	      4.72248733	      4.49185355	      0.95803599	      8.33024906	     -2.21986457
      4.06000000	     -4.61853435	     -7.38400522	      1.39419551	     -0.82678710	     -0.01979667	     -0.36669877	     20.42868249	     12.13098499	     -0.20398577	    -19.19757483	     -1.60842286	    -12.50859013	      5.63671565	      5.17507449	    -14.22646733	    -12.16999761	    -55.72588048	    -19.87480662	      3.55549009	      1.72039515	      0.91778398	      8.20167356	     -2.11915384
      4.06500000	     -4.61729118	     -7.23679306	      1.46871211	     -0.82027341	     -0.01849967	     -0.36640994	     19.70103355	     11.94492879	     -0.42847626	    -18.65604933	     -1.45333283	    -12.15935610	      7.11414725	      6.08729380	    -14.13546169	    -11.87766946	    -56.66737375	    -18.17618607	      2.45861754	     -0.90885192	      0.89991749	      8.00296194	     -1.96778222
      4.07000000	     -4.54329725	     -7.00438565	      1.60267638	     -0.81379028	     -0.01701015	     -0.36613613	     18.90182967	     11.67376144	     -0.62246407	    -18.16789008	     -1.01390014	    -11.67128096	      7.55076828	      6.88855306	    -13.91648921	    -11.53702538	    -57.37358480	    -17.00280660	      1.18978457	     -1.55859065	      0.80621217	      7.69989937	     -1.84924902
      4.07500000	     -4.60182305	     -6.76633907	      1.64412814	     -0.80741159	     -0.01569774	     -0.36591176	     18.28394376	     11.40768358	     -0.78789523	    -17.69904045	     -0.96627403	    -11.40974372	      9.03884329	      7.86788556	    -13.67289771	    -11.27425157	    -58.20163700	    -14.84564124	      0.18304469	     -6.12729905	      0.83071364	      7.41605594	     -1.64124295
      4.08000000	     -4.54579058	     -6.47485706	      1.69774112	     -0.80096090	     -0.01415922	     -0.36542608	     17.49446210	     11.16977995	     -0.54027661	    -17.20840667	     -0.82966871	    -11.51409286	      9.01654991	      8.62633827	    -13.38505699	    -11.05179490	    -58.68501823	    -13.88350200	     -1.11828765	     -6.22414498	      0.74802959	      7.03781886	     -1.51278918
      4.08500000	     -4.55088238	     -6.14047605	      1.81396420	     -0.79467055	     -0.01274604	     -0.36529030	     16.84747803	     10.81828580	     -0.54392519	    -16.83052582	     -0.55975948	    -11.35749210	      9.26989592	      9.56946981	    -12.96427075	    -10.67387908	    -59.38647348	    -11.36389665	     -1.94907262	    -13.18019316	      0.71682751	      6.64203279	     -1.40061926
      4.09000000	     -4.53168925	     -5.80147656	      1.83654173	     -0.78831498	     -0.01128709	     -0.36485151	     16.15443738	     10.53261796	     -0.28601881	    -16.43902071	     -0.42613613	    -11.46852310	      9.20496688	     10.35508282	    -12.58868296	    -10.48254148	    -59.72979580	    -10.60387305	     -3.28102903	    -13.27525287	      0.66081614	      6.22206869	     -1.19940278
      4.09500000	     -4.57060250	     -5.43352264	      1.88335173	     -0.78204350	     -0.00996461	     -0.36457495	     15.58393698	     10.19987776	     -0.04046137	    -16.20326395	      0.15930790	    -11.32034855	      7.89895889	     11.29593473	    -12.11833437	    -10.17070970	    -60.28473680	     -7.95741807	     -4.00869336	    -21.70912273	      0.66406251	      5.77878681	     -1.03861767
      4.10000000	     -4.56571734	     -5.10501208	      1.91551261	     -0.77574816	     -0.00862448	     -0.36420818	     14.93860106	      9.91898724	      0.21391075	    -15.85374165	      0.23987093	    -11.51218692	      7.84261826	     12.10135302	    -11.72370516	     -9.97773990	    -60.52055585	     -7.39075277	     -5.35469326	    -21.84289213	      0.62401208	      5.37565413	     -0.86668319
      4.10500000	     -4.62162558	     -4.70798598	      1.93731370	     -0.76954387	     -0.00738573	     -0.36405974	     14.39629606	      9.54267236	      0.48307770	    -15.60221152	      0.59612593	    -11.50305597	      7.25775616	     13.07463698	    -11.14288625	     -9.54456579	    -61.02663347	     -2.76042218	     -5.64952107	    -40.44949236	      0.64097317	      4.92153938	     -0.68795480
      4.11000000	     -4.62962398	     -4.37345157	      1.95392886	     -0.76330625	     -0.00618260	     -0.36369585	     13.77871595	      9.25532404	      0.78002266	    -15.27577970	      0.70231255	    -11.70941612	      7.11184589	     13.88160164	    -10.71876288	     -9.36383160	    -61.16200680	     -2.29910570	     -6.85323619	    -40.49356470	      0.61381978	      4.51166367	     -0.53662068
      4.11500000	     -4.65471826	     -4.02973420	      1.92960211	     -0.75707510	     -0.00505950	     -0.36327407	     13.17812170	      8.96702544	      1.12191681	    -14.95147311	      0.83985729	    -11.91985100	      6.86883590	     14.68544132	    -10.28923893	     -9.23486726	    -61.24044766	     -1.85369244	     -8.00674896	    -40.67652213	      0.60505541	      4.08936749	     -0.35391194
      4.12000000	     -4.78110649	     -3.64637521	      1.86692157	     -0.75095016	     -0.00396838	     -0.36275110	     12.72072321	      8.65430332	      1.57392430	    -14.75725978	      1.54634834	    -11.82213069	      4.53835788	     15.62350086	     -9.71508488	     -8.66368951	    -61.23991325	      3.22750425	     -8.33986791	    -64.65133638	      0.69181036	      3.61672971	     -0.11699191
      4.12500000	     -4.72891037	     -3.31536952	      1.81290327	     -0.74471050	     -0.00286348	     -0.36232050	     12.00527630	      8.37007972	      1.87413287	    -14.36464864	      1.68853574	    -11.93677716	      4.39555784	     16.30054688	     -9.30071142	     -8.58574880	    -61.19405005	      3.68768137	     -9.26303773	    -64.65518074	      0.61024587	      3.21393464	      0.08164555
      4.13000000	     -4.73691277	     -2.99786194	      1.75206402	     -0.73862387	     -0.00190958	     -0.36192827	     11.37608804	      8.08862569	      2.16477161	    -13.98707611	      1.83687082	    -12.02600380	      4.25319979	     17.05970882	     -8.88550343	     -8.47907669	    -61.13709916	      4.21944022	    -10.01883933	    -64.66791042	      0.57016936	      2.83473440	      0.27845539
      4.13500000	     -4.62757686	     -2.72358504	      1.65582523	     -0.73246351	     -0.00083675	     -0.36131988	     10.57700439	      7.89831682	      2.64445841	    -13.60251611	      2.40601332	    -12.03586435	      1.99264817	     17.64330251	     -8.55245308	     -8.38251280	    -60.95768952	      5.25785715	    -10.61590341	    -67.39150285	      0.42179057	      2.48028819	      0.51543741
      4.14000000	     -4.71281687	     -2.40213234	      1.52759642	     -0.72642180	     -0.00008944	     -0.36085448	     10.03344319	      7.60039535	      2.86923760	    -13.20733524	      2.59881752	    -11.96720576	      2.04917728	     18.44688410	     -8.15678508	     -8.36596840	    -60.79710032	      5.90357547	    -11.10392685	    -67.41042204	      0.46618230	      2.09830974	      0.75089569
      4.14500000	     -4.75082602	     -2.07013381	      1.35308638	     -0.72034419	      0.00070600	     -0.36031631	      9.41146577	      7.29477699	      3.13051644	    -12.76025295	      2.76596212	    -11.86704737	      2.11356180	     19.14826027	     -7.77893275	     -8.45137209	    -60.52132049	      6.55999656	    -11.57693632	    -67.66116628	      0.46971313	      1.70020785	      1.03014369
